<svg xmlns="http://www.w3.org/2000/svg" width="41.051" height="46.459" viewBox="0 0 41.051 46.459">
  <g id="backpack" transform="translate(-1020.974 -1673.771)">
    <g id="Group_125" data-name="Group 125" transform="translate(-137.526 821.271)">
      <path id="Path_86" data-name="Path 86" d="M2751.017,857.395a.711.711,0,1,0,1.367.391,4.708,4.708,0,0,1,7.325-2.433,4.58,4.58,0,0,1,1.678,2.433.711.711,0,1,0,1.367-.391,6.114,6.114,0,0,0-9.527-3.179,6.009,6.009,0,0,0-2.193,3.179Z" transform="translate(-1577.855)" fill="#016fb9" stroke="#016fb9" stroke-width="1"/>
      <path id="Path_87" data-name="Path 87" d="M1572.5,1202a16.552,16.552,0,0,1,16.5,16.5v25.153a.712.712,0,0,1-.71.71H1556.71a.712.712,0,0,1-.71-.71V1218.5a16.551,16.551,0,0,1,16.5-16.5Zm10.645,5.851a15.076,15.076,0,0,0-25.721,10.645v24.443h30.152V1218.5A15.021,15.021,0,0,0,1583.142,1207.851Z" transform="translate(-393.475 -345.901)" fill="#016fb9" stroke="#016fb9" stroke-width="1"/>
      <path id="Path_88" data-name="Path 88" d="M1912.883,3456h1.128a12.914,12.914,0,0,1,12.874,12.874v8.763a.713.713,0,0,1-.71.71H1900.71a.712.712,0,0,1-.71-.71v-8.763A12.914,12.914,0,0,1,1912.874,3456Zm1.128,1.421h-1.128a11.489,11.489,0,0,0-11.453,11.453v8.053h24.043v-8.053a11.489,11.489,0,0,0-11.453-11.453Z" transform="translate(-734.421 -2579.889)" fill="#016fb9" stroke="#016fb9" stroke-width="1"/>
      <path id="Path_90" data-name="Path 90" d="M1161.353,3618h1.891a.712.712,0,0,1,.71.71v17.349a.712.712,0,0,1-.71.71h-1.891a2.365,2.365,0,0,1-2.353-2.353v-14.055a2.364,2.364,0,0,1,2.353-2.353Zm1.181,1.42h-1.181a.94.94,0,0,0-.932.932v14.055a.94.94,0,0,0,.932.932h1.181V3619.42Z" transform="translate(0 -2740.451)" fill="#016fb9" stroke="#016fb9" stroke-width="1"/>
      <path id="Path_91" data-name="Path 91" d="M5114.6,3618.43h-1.181v15.928h1.181a.94.94,0,0,0,.932-.932v-14.055a.939.939,0,0,0-.932-.932Zm-1.891-1.421h1.891a2.364,2.364,0,0,1,2.353,2.353v14.055a2.364,2.364,0,0,1-2.353,2.353h-1.891a.713.713,0,0,1-.71-.71V3617.71a.713.713,0,0,1,.71-.71Z" transform="translate(-3917.903 -2739.459)" fill="#016fb9" stroke="#016fb9" stroke-width="1"/>
    </g>
    <path id="Path_92" data-name="Path 92" d="M113.624,97.995l-.026-2.01-.005-.395-.369.138-.017.006a2.8,2.8,0,0,1-.276.079,1.967,1.967,0,0,1-.427.056.792.792,0,0,1-.209-.024.366.366,0,0,1-.071-.027.213.213,0,0,1-.047-.032,1.24,1.24,0,0,1-.12-.136c-.085-.108-.187-.256-.3-.417-.084-.12-.173-.247-.267-.372a3.31,3.31,0,0,0-.459-.513,1.3,1.3,0,0,0-.274-.186.848.848,0,0,0-.159-.059.7.7,0,0,0-.176-.023.649.649,0,0,0-.128.013,1.013,1.013,0,0,0-.247.085,1.442,1.442,0,0,0-.35.25,2.471,2.471,0,0,0-.33.391,2.556,2.556,0,0,0-.287-.35,1.611,1.611,0,0,0-.283-.23,1.07,1.07,0,0,0-.357-.146.649.649,0,0,0-.128-.013.7.7,0,0,0-.179.024.956.956,0,0,0-.288.135,1.65,1.65,0,0,0-.215.175,3.415,3.415,0,0,0-.333.377c-.157.2-.3.416-.43.6-.064.091-.124.175-.177.244a1.322,1.322,0,0,1-.131.151.212.212,0,0,1-.047.032.419.419,0,0,1-.116.038.883.883,0,0,1-.164.014,1.656,1.656,0,0,1-.252-.021,2.7,2.7,0,0,1-.334-.076l-.1-.032-.026-.009-.006,0h0l-.369-.139-.005.395-.026,2.01c0,.046-.017.222-.017.478a7.392,7.392,0,0,0,.043.8,5.128,5.128,0,0,0,.365,1.467,3.056,3.056,0,0,0,.411.694,2.322,2.322,0,0,0,.615.543,11.38,11.38,0,0,0,2.714,1.421h0l.037.013.089.03.089-.03.037-.013h0a10.375,10.375,0,0,0,1.022-.427,11.252,11.252,0,0,0,1.691-.993,2.4,2.4,0,0,0,.775-.765,3.45,3.45,0,0,0,.349-.72,5.317,5.317,0,0,0,.254-1.1,7.333,7.333,0,0,0,.056-.914C113.641,98.217,113.627,98.041,113.624,97.995Z" transform="translate(932.11 1591.183)" fill="#016fb9"/>
  </g>
</svg>
