<svg xmlns="http://www.w3.org/2000/svg" width="46.115" height="31.196" viewBox="0 0 46.115 31.196">
  <g id="noun_Bed_683838" transform="translate(-25.942 158.598)">
    <g id="Group_37" data-name="Group 37" transform="translate(25.942 -158.598)">
      <path id="Path_34" data-name="Path 34" d="M39.328,20.713A4.07,4.07,0,0,1,43.4,24.782V35.632a1.356,1.356,0,0,0,2.713,0V24.782A6.783,6.783,0,0,0,39.328,18H1.356a1.356,1.356,0,1,0,0,2.713Z" transform="translate(0 -5.793)" fill="#016fb9" fill-rule="evenodd"/>
      <path id="Path_35" data-name="Path 35" d="M2.941,12.4c.23-.047.494-.1.789-.14a15.569,15.569,0,0,1,5.3.037,8.779,8.779,0,0,1,2.21.735,11.262,11.262,0,0,1,1.836,1.137,7.349,7.349,0,0,1,1.856,2.01,4.2,4.2,0,0,1,.3.593c.034.084.048.128.047.124a1.356,1.356,0,1,0,2.632-.658,5.662,5.662,0,0,0-.652-1.454,10.04,10.04,0,0,0-2.528-2.764,13.963,13.963,0,0,0-2.277-1.413A11.469,11.469,0,0,0,9.566,9.64a18.169,18.169,0,0,0-6.244-.059c-.59.09-1.035.181-1.3.246a1.356,1.356,0,0,0,.658,2.632C2.722,12.451,2.809,12.431,2.941,12.4Zm.093,10.948a1.356,1.356,0,0,0,0,2.713h40.69a1.356,1.356,0,0,0,0-2.713Z" transform="translate(-0.321 -3.006)" fill="#016fb9" fill-rule="evenodd"/>
      <path id="Path_36" data-name="Path 36" d="M2.713,1.356A1.356,1.356,0,0,0,0,1.356V29.839a1.356,1.356,0,1,0,2.713,0Z" fill="#016fb9" fill-rule="evenodd"/>
    </g>
  </g>
</svg>
