<svg xmlns="http://www.w3.org/2000/svg" width="42.961" height="42.855" viewBox="0 0 42.961 42.855">
  <g id="noun_customer_experience_1326786" data-name="noun_customer experience_1326786" transform="translate(-0.705 -0.825)">
    <g id="Group_23" data-name="Group 23" transform="translate(0.963 1.075)">
      <g id="Group_12" data-name="Group 12" transform="translate(16.022 17.62)">
        <g id="Group_11" data-name="Group 11">
          <path id="Path_12" data-name="Path 12" d="M31.1,38.78a5.14,5.14,0,1,0-5.2-5.14A5.21,5.21,0,0,0,31.1,38.78Zm0-8.93A3.922,3.922,0,0,1,35.023,33.7,3.88,3.88,0,0,1,31.1,37.559a3.855,3.855,0,1,1,0-7.71Z" transform="translate(-25.9 -28.5)" fill="#016fb9" stroke="#016fb9" stroke-width="0.5"/>
        </g>
      </g>
      <g id="Group_14" data-name="Group 14" transform="translate(14.841)">
        <g id="Group_13" data-name="Group 13">
          <path id="Path_13" data-name="Path 13" d="M26.849,8.994l-.642,3.662a.611.611,0,0,0,.257.642.689.689,0,0,0,.707.064l3.341-1.735,3.341,1.735a.713.713,0,0,0,.707-.064.611.611,0,0,0,.257-.642l-.642-3.662,2.7-2.634a.652.652,0,0,0,.193-.642.622.622,0,0,0-.514-.45l-3.726-.514-1.67-3.341a.664.664,0,0,0-1.156,0l-1.67,3.341L24.6,5.267a.622.622,0,0,0-.514.45.582.582,0,0,0,.193.642Zm1.863-3.02c.193,0,.385-.193.514-.321l1.221-2.57,1.221,2.506a.509.509,0,0,0,.514.321l2.763.45L32.953,8.287a.9.9,0,0,0-.193.578l.45,2.763-2.441-1.285a.481.481,0,0,0-.321-.064.579.579,0,0,0-.321.064l-2.441,1.285.45-2.763a.648.648,0,0,0-.193-.578L25.95,6.359Z" transform="translate(-24.063 -1.075)" fill="#016fb9" stroke="#016fb9" stroke-width="0.5"/>
        </g>
      </g>
      <g id="Group_16" data-name="Group 16" transform="translate(0 3.485)">
        <g id="Group_15" data-name="Group 15">
          <path id="Path_14" data-name="Path 14" d="M11.459,18.836a.611.611,0,0,0,.257-.642l-.642-3.662,2.7-2.634a.652.652,0,0,0,.193-.642.622.622,0,0,0-.514-.45l-3.726-.514L8.054,6.885A.738.738,0,0,0,7.476,6.5a.617.617,0,0,0-.578.385l-1.67,3.341L1.5,10.74a.622.622,0,0,0-.514.45.582.582,0,0,0,.193.642l2.7,2.7-.642,3.662a.611.611,0,0,0,.257.642A.689.689,0,0,0,4.2,18.9L7.54,17.165,10.881,18.9C11.009,19.028,11.266,18.964,11.459,18.836ZM7.8,15.816a.482.482,0,0,0-.578,0L4.777,17.1l.45-2.763a.648.648,0,0,0-.193-.578L3.043,11.833l2.763-.385c.193,0,.385-.193.514-.321L7.54,8.62l1.221,2.506a.509.509,0,0,0,.514.321l2.763.385L10.046,13.76a.9.9,0,0,0-.193.578L10.3,17.1Z" transform="translate(-0.963 -6.5)" fill="#016fb9" stroke="#016fb9" stroke-width="0.5"/>
        </g>
      </g>
      <g id="Group_18" data-name="Group 18" transform="translate(29.426 3.598)">
        <g id="Group_17" data-name="Group 17">
          <path id="Path_15" data-name="Path 15" d="M59.765,11.317a.622.622,0,0,0-.514-.45l-3.726-.514-1.67-3.341a.664.664,0,0,0-1.156,0l-1.67,3.341-3.726.514a.622.622,0,0,0-.514.45.582.582,0,0,0,.193.642l2.7,2.634-.642,3.662a.611.611,0,0,0,.257.642.689.689,0,0,0,.707.064l3.341-1.735,3.341,1.735a.713.713,0,0,0,.707-.064.611.611,0,0,0,.257-.642L57,14.594l2.7-2.634A1.111,1.111,0,0,0,59.765,11.317Zm-4.048,2.57a.9.9,0,0,0-.193.578l.45,2.763-2.441-1.285a.481.481,0,0,0-.321-.064.579.579,0,0,0-.321.064l-2.441,1.285.45-2.763a.648.648,0,0,0-.193-.578l-1.992-1.927,2.763-.385c.193,0,.385-.193.514-.321l1.221-2.506,1.221,2.506a.509.509,0,0,0,.514.321l2.763.385Z" transform="translate(-46.763 -6.675)" fill="#016fb9" stroke="#016fb9" stroke-width="0.5"/>
        </g>
      </g>
      <g id="Group_20" data-name="Group 20" transform="translate(9.533 13.315)">
        <g id="Group_19" data-name="Group 19" transform="translate(0 0)">
          <path id="Path_16" data-name="Path 16" d="M39.572,35.742h-.578a12.738,12.738,0,0,0,.193-2.249A11.693,11.693,0,1,0,27.493,45.186a11.482,11.482,0,0,0,4.626-.964,7.516,7.516,0,1,0,7.453-8.481ZM27.493,23.149A10.406,10.406,0,0,1,37.9,33.557,10.169,10.169,0,0,1,37.58,36a7.622,7.622,0,0,0-3.662,2.313,6.554,6.554,0,0,0-4.3-1.542h-4.24a6.679,6.679,0,0,0-5.847,3.469,10.4,10.4,0,0,1,7.967-17.09Zm-7,18.054a5.359,5.359,0,0,1,4.883-3.148h4.24a5.312,5.312,0,0,1,3.534,1.285,7.373,7.373,0,0,0-1.092,3.534A10.289,10.289,0,0,1,20.49,41.2Zm19.082,8.352A6.232,6.232,0,1,1,45.8,43.323,6.238,6.238,0,0,1,39.572,49.555Z" transform="translate(-15.8 -21.8)" fill="#016fb9" stroke="#016fb9" stroke-width="0.5"/>
        </g>
      </g>
      <g id="Group_22" data-name="Group 22" transform="translate(29.286 31.88)">
        <g id="Group_21" data-name="Group 21">
          <path id="Path_17" data-name="Path 17" d="M54.162,50.827l-4.69,4.112-1.8-2.12a.638.638,0,0,0-.964.835l2.184,2.634a1.036,1.036,0,0,0,.45.257.929.929,0,0,0,.45-.128L55,51.855a.624.624,0,0,0,.064-.9A.635.635,0,0,0,54.162,50.827Z" transform="translate(-46.545 -50.695)" fill="#016fb9" stroke="#016fb9" stroke-width="0.5"/>
        </g>
      </g>
    </g>
  </g>
</svg>
