<svg xmlns="http://www.w3.org/2000/svg" width="15.203" height="11.297" viewBox="0 0 15.203 11.297">
  <path id="Path_423" data-name="Path 423" d="M13.751,10.49,9.49,6.423a3.359,3.359,0,0,1-3.777,0L1.453,10.49h12.3ZM.839,9.942,5.068,5.907.807,2.259V9.78C.807,9.845.839,9.877.839,9.942ZM.872,1.227l5.1,4.358a2.5,2.5,0,0,0,3.26,0l5.1-4.358a.753.753,0,0,0-.678-.42H1.549A.816.816,0,0,0,.872,1.227ZM14.4,2.259,10.1,5.907l4.261,4.035c0-.065.032-.129.032-.194V9.393a.4.4,0,0,1,.387-.42.427.427,0,0,1,.42.42v.355A1.55,1.55,0,0,1,13.654,11.3H1.549A1.523,1.523,0,0,1,0,9.78V1.549A1.53,1.53,0,0,1,1.549,0h12.1A1.543,1.543,0,0,1,15.2,1.517V7.456a.427.427,0,0,1-.42.42.4.4,0,0,1-.387-.42Z" fill="#7e7e7e" opacity="0.7"/>
</svg>
