<svg xmlns="http://www.w3.org/2000/svg" width="16.165" height="14.135" viewBox="0 0 16.165 14.135">
  <path id="Icon_open-heart" data-name="Icon open-heart" d="M3.791,0A3.818,3.818,0,0,0,1.118,1.118,3.75,3.75,0,0,0,0,3.791,3.818,3.818,0,0,0,1.118,6.464l6.464,6.464,6.464-6.464a3.75,3.75,0,0,0,1.118-2.673,3.818,3.818,0,0,0-1.118-2.673A3.75,3.75,0,0,0,11.374,0,3.818,3.818,0,0,0,8.7,1.118,3.75,3.75,0,0,0,7.583,3.791,3.818,3.818,0,0,0,6.464,1.118,3.75,3.75,0,0,0,3.791,0Z" transform="translate(0.5 0.5)" fill="none" stroke="#fff" stroke-width="1"/>
</svg>
