<svg xmlns="http://www.w3.org/2000/svg" width="58.704" height="46.096" viewBox="0 0 58.704 46.096">
  <path id="Icon_metro-mastercard" data-name="Icon metro-mastercard" d="M19.667,34.448h-.331q-1.2,0-1.2.96,0,.66.51.66a.825.825,0,0,0,.713-.45A2.349,2.349,0,0,0,19.667,34.448Zm10.064-1.08h1.58v-.09a.54.54,0,0,0,.013-.2q-.013-.075-.025-.21a.968.968,0,0,0-.051-.24.637.637,0,0,0-.115-.2.59.59,0,0,0-.484-.21q-.713,0-.917,1.14Zm13.759,1.08h-.306q-1.223,0-1.223.96,0,.66.51.66a.825.825,0,0,0,.713-.45A2.349,2.349,0,0,0,43.49,34.448Zm8.128-.78q0-1.23-.764-1.23a.9.9,0,0,0-.79.6,3.364,3.364,0,0,0-.306,1.531q0,1.26.713,1.26a.942.942,0,0,0,.828-.6A3.325,3.325,0,0,0,51.618,33.667ZM14.8,29.436h2.217L15.9,37.3H14.469l.815-6.032L13.476,37.3h-.994l-.1-6-.866,6h-1.35l1.121-7.863h2.064l.051,4.892Zm6.446,3.211q0,.18-.1,1.26-.408,3.031-.433,3.391h-1.2l.025-.66a1.657,1.657,0,0,1-1.478.78,1.152,1.152,0,0,1-.955-.48,2.011,2.011,0,0,1-.369-1.26,2.418,2.418,0,0,1,.662-1.816,2.554,2.554,0,0,1,1.86-.645,4.672,4.672,0,0,1,.586.03.988.988,0,0,1,.013-.165q.013-.075.025-.135a.482.482,0,0,0,.013-.09q0-.6-.917-.6a4.1,4.1,0,0,0-1.5.3q0-.12.178-1.441a5.386,5.386,0,0,1,1.707-.33,1.656,1.656,0,0,1,1.885,1.861Zm3.975-1.741-.2,1.471a6.613,6.613,0,0,0-1.045-.09q-.688,0-.688.51a.5.5,0,0,0,.115.36,2.209,2.209,0,0,0,.548.33,1.917,1.917,0,0,1,1.019,1.8,1.906,1.906,0,0,1-2.217,2.131,5.282,5.282,0,0,1-1.478-.18q0-.06.178-1.471a4.283,4.283,0,0,0,1.3.24q.815,0,.815-.57a.515.515,0,0,0-.115-.345,2.237,2.237,0,0,0-.548-.375,2.092,2.092,0,0,1,1.045-3.931A5.674,5.674,0,0,1,25.222,30.906Zm2.242,0h.713L28,32.467H27.26q-.051.51-.166,1.215t-.178,1.155q-.064.45-.064.54a.426.426,0,0,0,.484.48,1.437,1.437,0,0,0,.408-.06l-.2,1.41a2.789,2.789,0,0,1-1.019.21q-1.1,0-1.147-1.41a15.16,15.16,0,0,1,.2-1.681q.076-.6.637-4.382h1.4ZM32.636,33.1a7.857,7.857,0,0,1-.178,1.561H29.629a1.145,1.145,0,0,0,.255.99,1.315,1.315,0,0,0,.968.33,2.874,2.874,0,0,0,1.478-.42L32.1,37.178a4.849,4.849,0,0,1-1.452.24q-2.421,0-2.421-2.851a4.851,4.851,0,0,1,.7-2.716A2.068,2.068,0,0,1,30.7,30.786a1.74,1.74,0,0,1,1.414.63,2.55,2.55,0,0,1,.522,1.681Zm3.542-2.221a7.928,7.928,0,0,0-.561,1.861q-.561-.06-.79.72A35.184,35.184,0,0,0,34.19,37.3H32.763l.076-.42q.561-3.9.739-5.972h1.3l-.076.99a3.472,3.472,0,0,1,.65-.885.74.74,0,0,1,.726-.135Zm4.765-1.23-.229,1.711a2.58,2.58,0,0,0-1.274-.42,1.5,1.5,0,0,0-1.3.825,3.972,3.972,0,0,0-.51,2.116,2.5,2.5,0,0,0,.344,1.41,1.113,1.113,0,0,0,.981.51,2.548,2.548,0,0,0,1.223-.39l-.255,1.771a4.051,4.051,0,0,1-1.274.24,2.147,2.147,0,0,1-1.822-.915,4.084,4.084,0,0,1-.675-2.476,6.007,6.007,0,0,1,.9-3.436,2.719,2.719,0,0,1,2.331-1.335,3.982,3.982,0,0,1,1.554.39Zm4.128,3a9.142,9.142,0,0,1-.1,1.26q-.331,2.371-.433,3.391H43.363l.025-.66a1.68,1.68,0,0,1-1.5.78,1.119,1.119,0,0,1-.943-.48,2.062,2.062,0,0,1-.357-1.26,2.445,2.445,0,0,1,.65-1.816,2.509,2.509,0,0,1,1.847-.645,4.313,4.313,0,0,1,.586.03,1.662,1.662,0,0,0,.051-.39q0-.6-.917-.6a4.094,4.094,0,0,0-1.5.3q0-.12.2-1.441a5.386,5.386,0,0,1,1.707-.33,1.644,1.644,0,0,1,1.86,1.861Zm3.593-1.771a6.5,6.5,0,0,0-.535,1.861q-.586-.06-.8.69a39.176,39.176,0,0,0-.65,3.871H45.248l.076-.42q.484-3.121.739-5.972h1.325a7.128,7.128,0,0,1-.1.99,3.879,3.879,0,0,1,.675-.885.7.7,0,0,1,.7-.135Zm3.593-1.441h1.427l-1.1,7.863h-1.35l.076-.57a1.714,1.714,0,0,1-1.325.69,1.443,1.443,0,0,1-1.261-.72,3.462,3.462,0,0,1-.471-1.921,5.274,5.274,0,0,1,.7-2.761,1.975,1.975,0,0,1,1.643-1.17,1.605,1.605,0,0,1,1.35.87Zm2.828,3.9a18.29,18.29,0,0,0-1.847-8.193A15.145,15.145,0,0,0,48.191,19.2a12.078,12.078,0,0,0-6.969-2.191,12.331,12.331,0,0,0-8.357,3.3,17.981,17.981,0,0,1,4.357,8.523H35.948a16.782,16.782,0,0,0-4.026-7.593A16.782,16.782,0,0,0,27.9,28.836H26.623a17.981,17.981,0,0,1,4.357-8.523,12.332,12.332,0,0,0-8.357-3.3A12.078,12.078,0,0,0,15.654,19.2a15.145,15.145,0,0,0-5.045,5.942,18.291,18.291,0,0,0-1.847,8.193,18.29,18.29,0,0,0,1.847,8.193,15.146,15.146,0,0,0,5.045,5.942,12.078,12.078,0,0,0,6.969,2.191,12.332,12.332,0,0,0,8.357-3.3,17.933,17.933,0,0,1-4.2-7.923H28.05a16.514,16.514,0,0,0,3.873,6.992A16.514,16.514,0,0,0,35.8,38.439h1.274a17.932,17.932,0,0,1-4.2,7.923,12.331,12.331,0,0,0,8.357,3.3,12.078,12.078,0,0,0,6.969-2.191,15.145,15.145,0,0,0,5.045-5.942,18.291,18.291,0,0,0,1.847-8.193ZM61.275,14.13V52.544a4.04,4.04,0,0,1-.968,2.7,2.923,2.923,0,0,1-2.293,1.14H5.832a2.924,2.924,0,0,1-2.293-1.14,4.039,4.039,0,0,1-.968-2.7V14.13a4.04,4.04,0,0,1,.968-2.7,2.923,2.923,0,0,1,2.293-1.14H58.013a2.924,2.924,0,0,1,2.293,1.14A4.039,4.039,0,0,1,61.275,14.13Z" transform="translate(-2.571 -10.289)" fill="#bebebe"/>
</svg>
