<svg xmlns="http://www.w3.org/2000/svg" width="49.496" height="33.864" viewBox="0 0 49.496 33.864">
  <g id="mousepad" transform="translate(-702.75 -1683.75)">
    <g id="Group_36" data-name="Group 36" transform="translate(0.548 830.282)">
      <g id="noun_rectangles_1702938" transform="translate(700.552 836.118)">
        <g id="Group_35" data-name="Group 35" transform="translate(2.9 18.6)">
          <rect id="Rectangle_10" data-name="Rectangle 10" width="46.996" height="31.364" rx="3" fill="none" stroke="#016fb9" stroke-miterlimit="10" stroke-width="2.5"/>
          <rect id="Rectangle_11" data-name="Rectangle 11" width="38.754" height="23.071" rx="3" transform="translate(4.5 4.5)" fill="none" stroke="#016fb9" stroke-miterlimit="10" stroke-width="1"/>
        </g>
      </g>
    </g>
    <path id="Path_81" data-name="Path 81" d="M115.384,98.8l-.032-2.425-.006-.476-.445.167-.021.008a3.375,3.375,0,0,1-.333.1,2.373,2.373,0,0,1-.515.067.955.955,0,0,1-.253-.029.441.441,0,0,1-.086-.033.257.257,0,0,1-.056-.039,1.5,1.5,0,0,1-.145-.165c-.1-.13-.226-.309-.36-.5-.1-.145-.208-.3-.322-.449a3.993,3.993,0,0,0-.554-.618,1.562,1.562,0,0,0-.331-.224,1.023,1.023,0,0,0-.192-.072.844.844,0,0,0-.212-.028.784.784,0,0,0-.154.015,1.222,1.222,0,0,0-.3.1,1.74,1.74,0,0,0-.423.3,2.982,2.982,0,0,0-.4.472,3.084,3.084,0,0,0-.346-.422,1.943,1.943,0,0,0-.341-.277,1.291,1.291,0,0,0-.431-.177.784.784,0,0,0-.154-.015.843.843,0,0,0-.216.029,1.153,1.153,0,0,0-.348.163,1.99,1.99,0,0,0-.259.211,4.12,4.12,0,0,0-.4.455c-.189.244-.364.5-.518.723-.077.11-.149.211-.213.294a1.6,1.6,0,0,1-.158.182.255.255,0,0,1-.056.039.506.506,0,0,1-.14.046,1.066,1.066,0,0,1-.2.017,2,2,0,0,1-.3-.026,3.253,3.253,0,0,1-.4-.091c-.052-.015-.095-.029-.123-.039l-.032-.011-.007,0h0l-.446-.167-.006.476-.032,2.425c0,.056-.021.268-.021.577a8.918,8.918,0,0,0,.052.963,6.186,6.186,0,0,0,.44,1.77,3.686,3.686,0,0,0,.5.837,2.8,2.8,0,0,0,.741.655,13.73,13.73,0,0,0,3.274,1.714h0l.045.015.107.036.108-.036.045-.015h0a12.517,12.517,0,0,0,1.232-.515,13.577,13.577,0,0,0,2.04-1.2,2.9,2.9,0,0,0,.935-.923,4.163,4.163,0,0,0,.421-.869,6.415,6.415,0,0,0,.307-1.333,8.845,8.845,0,0,0,.068-1.1C115.405,99.071,115.389,98.859,115.384,98.8Z" transform="translate(617.228 1601.217)" fill="#016fb9"/>
  </g>
</svg>
