<svg xmlns="http://www.w3.org/2000/svg" width="59.266" height="46.096" viewBox="0 0 59.266 46.096">
  <path id="Icon_awesome-cc-paypal" data-name="Icon awesome-cc-paypal" d="M19.169,25.524a2.208,2.208,0,0,1-2.264,2.212,1.487,1.487,0,0,1-1.646-1.543,2.231,2.231,0,0,1,2.233-2.264A1.545,1.545,0,0,1,19.169,25.524ZM8.283,20.534H7.8a.322.322,0,0,0-.329.278l-.442,2.747.844-.031c1.132,0,2.006-.154,2.212-1.461.237-1.379-.638-1.533-1.8-1.533Zm29.222,0h-.463a.3.3,0,0,0-.329.278l-.432,2.747.823-.031c1.338,0,2.264-.309,2.264-1.852-.01-1.091-.988-1.142-1.862-1.142ZM59.266,7.189V43.407a4.94,4.94,0,0,1-4.939,4.939H4.939A4.94,4.94,0,0,1,0,43.407V7.189A4.94,4.94,0,0,1,4.939,2.25H54.328A4.94,4.94,0,0,1,59.266,7.189ZM13.2,21.121c0-2.161-1.667-2.881-3.57-2.881H5.515a.544.544,0,0,0-.535.484L3.293,29.229a.354.354,0,0,0,.329.412H5.577a.656.656,0,0,0,.566-.586l.463-2.737c.1-.741,1.358-.484,1.852-.484A4.351,4.351,0,0,0,13.2,21.121Zm8.664.905H19.91c-.391,0-.412.566-.432.844a2.627,2.627,0,0,0-2.439-1.029,4.591,4.591,0,0,0-4.445,4.651A3.071,3.071,0,0,0,15.856,29.8a4.007,4.007,0,0,0,2.727-1.224,2.75,2.75,0,0,0-.1.638c0,.237.1.412.329.412h1.77c.278,0,.514-.3.566-.586l1.05-6.616A.35.35,0,0,0,21.865,22.026ZM26.032,32.1l6.554-9.528a.211.211,0,0,0,.051-.175.367.367,0,0,0-.329-.36H30.333a.582.582,0,0,0-.463.257l-2.727,4.013-1.132-3.858a.624.624,0,0,0-.566-.412H23.521a.367.367,0,0,0-.329.36c0,.123,2.006,5.844,2.181,6.39a26.582,26.582,0,0,0-2.109,3.251.332.332,0,0,0,.329.329h1.976a.606.606,0,0,0,.463-.268ZM42.423,21.121c0-2.161-1.667-2.881-3.57-2.881H34.768a.567.567,0,0,0-.566.484l-1.667,10.5a.367.367,0,0,0,.329.412h2.109a.441.441,0,0,0,.412-.329l.463-2.984c.1-.741,1.358-.484,1.852-.484A4.346,4.346,0,0,0,42.423,21.121Zm8.664.905H49.132c-.391,0-.412.566-.442.844a2.58,2.58,0,0,0-2.439-1.029,4.591,4.591,0,0,0-4.445,4.651A3.071,3.071,0,0,0,45.067,29.8a3.89,3.89,0,0,0,2.727-1.224,4.572,4.572,0,0,0-.1.638c0,.237.1.412.329.412H49.8c.278,0,.514-.3.566-.586l1.05-6.616a.35.35,0,0,0-.329-.4ZM55.974,18.6a.346.346,0,0,0-.329-.36h-1.9a.341.341,0,0,0-.329.278l-1.667,10.7-.031.051a.364.364,0,0,0,.36.36h1.7a.637.637,0,0,0,.535-.586l1.667-10.413V18.6Zm-9.26,5.33a2.225,2.225,0,0,0-2.233,2.264,1.508,1.508,0,0,0,1.667,1.543,2.194,2.194,0,0,0,2.233-2.212,1.532,1.532,0,0,0-1.667-1.595Z" transform="translate(0 -2.25)" fill="#bebebe"/>
</svg>
