<svg xmlns="http://www.w3.org/2000/svg" width="30.696" height="30.751" viewBox="0 0 30.696 30.751">
  <path id="Icon_feather-phone-call" data-name="Icon feather-phone-call" d="M20.876,6.975a6.844,6.844,0,0,1,5.406,5.406M20.876,1.5A12.318,12.318,0,0,1,31.757,12.367M30.389,23.29V27.4A2.737,2.737,0,0,1,27.4,30.133a27.087,27.087,0,0,1-11.812-4.2,26.69,26.69,0,0,1-8.212-8.212,27.087,27.087,0,0,1-4.2-11.867A2.737,2.737,0,0,1,5.9,2.869h4.106a2.737,2.737,0,0,1,2.737,2.354A17.574,17.574,0,0,0,13.7,9.069a2.737,2.737,0,0,1-.616,2.888L11.35,13.7a21.9,21.9,0,0,0,8.212,8.212L21.3,20.169a2.737,2.737,0,0,1,2.888-.616,17.574,17.574,0,0,0,3.846.958A2.737,2.737,0,0,1,30.389,23.29Z" transform="translate(-2.167 -0.396)" fill="none" stroke="#016fb9" stroke-linecap="round" stroke-linejoin="round" stroke-width="2"/>
</svg>
