<svg xmlns="http://www.w3.org/2000/svg" width="30.466" height="43.211" viewBox="0 0 30.466 43.211">
  <g id="poster" transform="translate(-554.406 -1679.5)">
    <g id="Group_34" data-name="Group 34" transform="translate(-1.46 828.445)">
      <g id="noun_Poster_2651064" transform="translate(556.366 851.555)">
        <g id="Group_33" data-name="Group 33" transform="translate(0 0)">
          <path id="Path_30" data-name="Path 30" d="M50.785,14.847H48.374v-1a.761.761,0,0,0-.761-.761h-.969V11.3a.958.958,0,1,0-1.916,0v1.793h-.969a.761.761,0,0,0-.761.761v1H31.1v-1a.761.761,0,0,0-.761-.761h-.969V11.3a.958.958,0,0,0-1.916,0v1.793h-.969a.761.761,0,0,0-.761.761v1H23.315a1,1,0,0,0-1,1V51.556a.994.994,0,0,0,1,1H50.79a1,1,0,0,0,1-1V15.843A1,1,0,0,0,50.785,14.847Zm-3.938-.234v2.326H44.522V14.613Zm-17.274,0v2.326H27.248V14.613ZM49.79,50.56H24.31V16.838h1.416V17.7a.761.761,0,0,0,.761.761h3.847A.761.761,0,0,0,31.1,17.7v-.862H42.989V17.7a.761.761,0,0,0,.761.761H47.6a.761.761,0,0,0,.761-.761v-.862h1.416V50.56Z" transform="translate(-22.32 -10.34)" fill="#016fb9" stroke="#016fb9" stroke-width="1"/>
        </g>
      </g>
    </g>
    <path id="Path_80" data-name="Path 80" d="M118.5,100.233l-.041-3.159-.008-.62-.58.218-.027.01a4.388,4.388,0,0,1-.434.124,3.091,3.091,0,0,1-.671.088,1.245,1.245,0,0,1-.329-.038.575.575,0,0,1-.112-.043.335.335,0,0,1-.073-.051,1.949,1.949,0,0,1-.188-.214c-.133-.17-.294-.4-.469-.655-.131-.189-.271-.389-.419-.585a5.2,5.2,0,0,0-.722-.806A2.036,2.036,0,0,0,114,94.21a1.333,1.333,0,0,0-.25-.093,1.1,1.1,0,0,0-.277-.036,1.021,1.021,0,0,0-.2.02,1.592,1.592,0,0,0-.389.134,2.267,2.267,0,0,0-.551.392,3.885,3.885,0,0,0-.519.615,4.017,4.017,0,0,0-.451-.55,2.532,2.532,0,0,0-.445-.361,1.682,1.682,0,0,0-.562-.23,1.02,1.02,0,0,0-.2-.02,1.1,1.1,0,0,0-.281.037,1.5,1.5,0,0,0-.453.213,2.593,2.593,0,0,0-.338.275,5.369,5.369,0,0,0-.524.593c-.246.317-.474.655-.675.942-.1.144-.194.275-.278.383a2.08,2.08,0,0,1-.206.237.333.333,0,0,1-.073.051.659.659,0,0,1-.182.06,1.389,1.389,0,0,1-.258.022,2.6,2.6,0,0,1-.4-.034,4.232,4.232,0,0,1-.524-.119c-.068-.02-.123-.038-.16-.05l-.041-.014-.009,0h0l-.581-.218-.008.62-.041,3.159c-.006.073-.027.349-.027.752a11.617,11.617,0,0,0,.067,1.254,8.059,8.059,0,0,0,.574,2.306,4.8,4.8,0,0,0,.646,1.091,3.649,3.649,0,0,0,.966.854,17.886,17.886,0,0,0,4.266,2.233h0l.058.02.14.048.14-.048.058-.02h0a16.3,16.3,0,0,0,1.606-.671,17.687,17.687,0,0,0,2.657-1.56,3.779,3.779,0,0,0,1.218-1.2,5.423,5.423,0,0,0,.549-1.132,8.357,8.357,0,0,0,.4-1.737,11.523,11.523,0,0,0,.089-1.436C118.527,100.582,118.506,100.306,118.5,100.233Z" transform="translate(457.666 1603.507)" fill="#016fb9"/>
  </g>
</svg>
