<svg xmlns="http://www.w3.org/2000/svg" width="36.15" height="35.757" viewBox="0 0 36.15 35.757">
  <g id="noun_premium_2956664" transform="translate(-1.044 -0.858)">
    <g id="Group_4" data-name="Group 4" transform="translate(1.299 1.11)">
      <path id="Path_9" data-name="Path 9" d="M35.376,20.338A12.188,12.188,0,1,0,23.188,32.526,12.188,12.188,0,0,0,35.376,20.338ZM23.188,31.365A11.027,11.027,0,1,1,34.215,20.338,11.027,11.027,0,0,1,23.188,31.365Z" transform="translate(-5.37 -4.064)" fill="#016fb9" stroke="#016fb9" stroke-width="0.5"/>
      <path id="Path_10" data-name="Path 10" d="M29.207,16.449a.415.415,0,0,0-.4-.287H24.23L22.814,11.8a.415.415,0,0,0-.789,0l-1.417,4.359H16.026a.415.415,0,0,0-.244.752l3.707,2.693-1.416,4.356a.415.415,0,0,0,.639.464l3.707-2.693,3.707,2.693a.415.415,0,0,0,.639-.464L25.35,19.606l3.707-2.694A.415.415,0,0,0,29.207,16.449Zm-4.59,2.664a.415.415,0,0,0-.151.464l1.114,3.429-2.916-2.119a.415.415,0,0,0-.489,0l-2.916,2.119,1.114-3.429a.415.415,0,0,0-.151-.464L17.3,16.994H20.91a.415.415,0,0,0,.4-.291l1.114-3.427L23.533,16.7a.415.415,0,0,0,.4.287h3.605Z" transform="translate(-4.601 -2.899)" fill="#016fb9" stroke="#016fb9" stroke-width="0.5"/>
      <path id="Path_11" data-name="Path 11" d="M36.765,29.625l-3.8-3.8a1.549,1.549,0,0,0,.248-.305,2.822,2.822,0,0,0,.116-1.9,2.6,2.6,0,0,1-.049-1.084A2.574,2.574,0,0,1,34,21.762a2.844,2.844,0,0,0,1.147-1.55A2.813,2.813,0,0,0,34.6,18.4a2.6,2.6,0,0,1-.423-1.015,2.612,2.612,0,0,1,.423-1.016,2.811,2.811,0,0,0,.539-1.81A2.847,2.847,0,0,0,34,13.008a2.569,2.569,0,0,1-.72-.777,2.6,2.6,0,0,1,.049-1.084,2.82,2.82,0,0,0-.116-1.9,2.833,2.833,0,0,0-1.6-1.055,2.573,2.573,0,0,1-.954-.489,2.585,2.585,0,0,1-.32-1.028,2.834,2.834,0,0,0-.76-1.752,2.833,2.833,0,0,0-1.857-.447,2.587,2.587,0,0,1-1.07-.138,2.584,2.584,0,0,1-.645-.851,2.844,2.844,0,0,0-1.323-1.4,2.808,2.808,0,0,0-1.885.215,2.576,2.576,0,0,1-1.065.238,2.55,2.55,0,0,1-.885-.569,2.85,2.85,0,0,0-1.731-.865,2.85,2.85,0,0,0-1.731.865,2.557,2.557,0,0,1-.886.572,2.67,2.67,0,0,1-1.064-.239,2.81,2.81,0,0,0-1.885-.218,2.84,2.84,0,0,0-1.32,1.393,2.577,2.577,0,0,1-.645.851,2.582,2.582,0,0,1-1.071.139A2.833,2.833,0,0,0,8.66,4.92,2.837,2.837,0,0,0,7.9,6.673,2.583,2.583,0,0,1,7.58,7.7a2.586,2.586,0,0,1-.954.489,2.836,2.836,0,0,0-1.6,1.055,2.822,2.822,0,0,0-.116,1.9,2.6,2.6,0,0,1,.045,1.086,2.571,2.571,0,0,1-.72.777,2.844,2.844,0,0,0-1.147,1.55,2.808,2.808,0,0,0,.54,1.81,2.617,2.617,0,0,1,.422,1.016A2.608,2.608,0,0,1,3.629,18.4a2.81,2.81,0,0,0-.54,1.81,2.844,2.844,0,0,0,1.147,1.55,2.574,2.574,0,0,1,.72.777,2.6,2.6,0,0,1-.047,1.086,2.82,2.82,0,0,0,.116,1.9,1.552,1.552,0,0,0,.248.305l-3.8,3.8a.58.58,0,0,0,.258.971l4.2,1.143,1.143,4.194a.58.58,0,0,0,.411.406.569.569,0,0,0,.149.02.58.58,0,0,0,.41-.17L12.5,31.727a2.215,2.215,0,0,0,1.05.95,2.821,2.821,0,0,0,1.886-.215,2.564,2.564,0,0,1,1.064-.238,2.55,2.55,0,0,1,.885.572,2.854,2.854,0,0,0,1.731.862,2.854,2.854,0,0,0,1.731-.865,2.55,2.55,0,0,1,.885-.572,2.564,2.564,0,0,1,1.064.238,2.812,2.812,0,0,0,1.886.215,2.21,2.21,0,0,0,1.05-.948L30.2,36.195a.58.58,0,0,0,.41.17.569.569,0,0,0,.149-.02.58.58,0,0,0,.411-.406l1.143-4.194,4.2-1.143a.58.58,0,0,0,.258-.971ZM7.923,34.664l-.967-3.55a.58.58,0,0,0-.406-.406L3,29.739l3.3-3.292c.111.044.222.088.33.128a2.573,2.573,0,0,1,.954.49,2.585,2.585,0,0,1,.32,1.028,2.837,2.837,0,0,0,.76,1.753,2.835,2.835,0,0,0,1.857.446,2.57,2.57,0,0,1,1.071.138,1.077,1.077,0,0,1,.284.287ZM25,30.694c-.232.395-.47.8-.717.892a2.162,2.162,0,0,1-1.1-.219,3.316,3.316,0,0,0-1.652-.29,3.241,3.241,0,0,0-1.423.821c-.355.294-.723.6-.992.6s-.638-.3-.992-.6a3.241,3.241,0,0,0-1.423-.821,1.814,1.814,0,0,0-.31-.025,4.127,4.127,0,0,0-1.342.313,2.2,2.2,0,0,1-1.1.219c-.247-.09-.486-.5-.718-.893a3.265,3.265,0,0,0-1.059-1.265,3.269,3.269,0,0,0-1.64-.3,2.184,2.184,0,0,1-1.118-.174,2.181,2.181,0,0,1-.366-1.075,3.272,3.272,0,0,0-.573-1.564,3.268,3.268,0,0,0-1.438-.831c-.406-.151-.871-.322-1-.548a2.177,2.177,0,0,1,.023-1.127,3.29,3.29,0,0,0-.006-1.672,3.241,3.241,0,0,0-1.06-1.263c-.348-.3-.71-.605-.754-.867a2.164,2.164,0,0,1,.406-1.037,3.366,3.366,0,0,0,.569-1.587A3.361,3.361,0,0,0,4.639,15.8a2.167,2.167,0,0,1-.406-1.037c.046-.262.406-.57.754-.867a3.243,3.243,0,0,0,1.06-1.263,3.292,3.292,0,0,0,.006-1.673,2.179,2.179,0,0,1-.023-1.128c.131-.225.592-.4,1-.548a3.263,3.263,0,0,0,1.439-.831A3.279,3.279,0,0,0,9.04,6.886a2.183,2.183,0,0,1,.368-1.075,2.182,2.182,0,0,1,1.118-.174,3.275,3.275,0,0,0,1.642-.3,3.25,3.25,0,0,0,1.064-1.268c.232-.395.471-.8.717-.892a2.167,2.167,0,0,1,1.1.219,3.313,3.313,0,0,0,1.653.287,3.239,3.239,0,0,0,1.423-.82c.354-.294.723-.6.992-.6s.638.3.992.6a3.234,3.234,0,0,0,1.423.819A3.277,3.277,0,0,0,23.186,3.4a2.147,2.147,0,0,1,1.1-.219c.247.09.486.5.718.893a3.259,3.259,0,0,0,1.06,1.267,3.269,3.269,0,0,0,1.64.3,2.185,2.185,0,0,1,1.118.174,2.179,2.179,0,0,1,.366,1.075,3.277,3.277,0,0,0,.573,1.564,3.261,3.261,0,0,0,1.438.831c.406.151.871.323,1,.548a2.179,2.179,0,0,1-.023,1.128,3.29,3.29,0,0,0,.006,1.672,3.25,3.25,0,0,0,1.059,1.263c.348.3.71.6.754.867a2.167,2.167,0,0,1-.406,1.037,3.361,3.361,0,0,0-.573,1.587,3.366,3.366,0,0,0,.573,1.587A2.164,2.164,0,0,1,34,20.008c-.046.262-.406.569-.754.867a3.241,3.241,0,0,0-1.06,1.263,3.29,3.29,0,0,0-.006,1.672,2.177,2.177,0,0,1,.023,1.127c-.131.226-.592.4-1,.548a3.269,3.269,0,0,0-1.439.831,3.277,3.277,0,0,0-.572,1.564,2.184,2.184,0,0,1-.366,1.076,2.178,2.178,0,0,1-1.118.174,3.274,3.274,0,0,0-1.642.295A3.254,3.254,0,0,0,25,30.694Zm6.684.012a.58.58,0,0,0-.406.406l-.967,3.55-3.947-3.947a1.065,1.065,0,0,1,.284-.287,2.577,2.577,0,0,1,1.071-.139,2.832,2.832,0,0,0,1.857-.446,2.837,2.837,0,0,0,.76-1.753,2.58,2.58,0,0,1,.319-1.028,2.585,2.585,0,0,1,.954-.49c.108-.04.219-.084.33-.128l3.3,3.292Z" transform="translate(-1.299 -1.11)" fill="#016fb9" stroke="#016fb9" stroke-width="0.5"/>
    </g>
  </g>
</svg>
