<svg xmlns="http://www.w3.org/2000/svg" width="20.105" height="18.604" viewBox="0 0 20.105 18.604">
  <g id="Icon_feather-shopping-cart" data-name="Icon feather-shopping-cart" transform="translate(-0.75 -0.75)">
    <path id="Path_6" data-name="Path 6" d="M31.5,31.5A1.5,1.5,0,1,1,30,30,1.5,1.5,0,0,1,31.5,31.5Z" transform="translate(-12.992 -13.646)" fill="#686868"/>
    <path id="Path_8" data-name="Path 8" d="M31.5,31.5A1.5,1.5,0,1,1,30,30,1.5,1.5,0,0,1,31.5,31.5Z" transform="translate(-20.992 -13.646)" fill="#686868"/>
    <path id="Path_7" data-name="Path 7" d="M1.5,1.5H4.883L7.149,12.824A1.691,1.691,0,0,0,8.84,14.185h8.22a1.691,1.691,0,0,0,1.691-1.362l1.353-7.1H5.728" transform="translate(0 0)" fill="none" stroke="#686868" stroke-linecap="round" stroke-linejoin="round" stroke-width="1.5"/>
  </g>
</svg>
