<svg xmlns="http://www.w3.org/2000/svg" width="47.44" height="42.941" viewBox="0 0 47.44 42.941">
  <g id="tshirt" transform="translate(0.585 -18.584)">
    <g id="Group_32" data-name="Group 32" transform="translate(0 19.089)">
      <path id="Path_26" data-name="Path 26" d="M46.02,30.316l-.033-.033-9.551-8.489a.907.907,0,0,0-.3-.182l-6.909-2.47a.908.908,0,0,0-1.217.808c0,.2-.3,4.8-4.9,4.875-4.63-.073-4.921-4.676-4.93-4.875a.908.908,0,0,0-1.208-.808l-6.9,2.5a.907.907,0,0,0-.3.182L.283,30.283A.908.908,0,0,0,.25,31.567l.033.033,7.554,7.636V60.117a.908.908,0,0,0,.908.908H37.525a.908.908,0,0,0,.908-.908V39.235L45.987,31.6A.908.908,0,0,0,46.02,30.316Zm-7.614,6.332V32.435a.908.908,0,0,0-1.816,0V59.164H9.616V32.435a.908.908,0,1,0-1.816,0v4.222L2.216,31l8.643-7.735,5.684-2.052a6.691,6.691,0,0,0,13.137,0l5.684,2.052L43.98,31Z" transform="translate(0 -19.089)" fill="#016fb9" stroke="#016fb9" stroke-width="1"/>
    </g>
  </g>
</svg>
