<svg xmlns="http://www.w3.org/2000/svg" width="57.163" height="45.767" viewBox="0 0 57.163 45.767">
  <path id="Icon_metro-visa" data-name="Icon metro-visa" d="M51.571,35.973H48.147q.347-1.1,1.637-5.333l.074-.268q.1-.3.248-.775t.223-.775l.3,1.639ZM15.745,34.036l-1.439-8.79a1.716,1.716,0,0,0-1.861-1.609H5.8l-.05.387a14.133,14.133,0,0,1,10,10.011Zm4.441-10.4L16.167,36.688l-.422-2.652a11.239,11.239,0,0,0-2.109-3.859,9.735,9.735,0,0,0-3.25-2.637l3.349,15.2h4.342l6.475-19.1H20.186Zm3.449,19.129h4.119l2.58-19.129H26.215ZM42.689,24.114a8.582,8.582,0,0,0-3.7-.8,7.131,7.131,0,0,0-4.987,1.758,5.95,5.95,0,0,0-1.96,4.559q-.025,3.039,3.6,5.185A6.811,6.811,0,0,1,37.3,36.033a1.728,1.728,0,0,1,.471,1.162,1.532,1.532,0,0,1-.744,1.371,3.1,3.1,0,0,1-1.712.477,7.717,7.717,0,0,1-3.87-.983l-.546-.328-.571,4.291a9.407,9.407,0,0,0,4.59,1.013A7.246,7.246,0,0,0,40.1,41.277a6.311,6.311,0,0,0,2-4.767q0-3.158-3.473-5.185a11.78,11.78,0,0,1-1.762-1.251,1.518,1.518,0,0,1-.546-1.132,1.446,1.446,0,0,1,.608-1.147A2.722,2.722,0,0,1,38.67,27.3a6.006,6.006,0,0,1,3.076.715l.372.238Zm10.544-.477H50.057A2.12,2.12,0,0,0,47.9,25.247l-6.1,17.52h4.317l.868-2.86h5.26q.124.655.5,2.86h3.821Zm6.5-9.535V52.242a4.059,4.059,0,0,1-.943,2.682,2.827,2.827,0,0,1-2.233,1.132H5.746a2.828,2.828,0,0,1-2.233-1.132,4.058,4.058,0,0,1-.943-2.682V14.1a4.059,4.059,0,0,1,.943-2.682,2.827,2.827,0,0,1,2.233-1.132H56.558a2.828,2.828,0,0,1,2.233,1.132,4.058,4.058,0,0,1,.943,2.682Z" transform="translate(-2.571 -10.289)" fill="#bebebe"/>
</svg>
